OpenSans-Light.ufo
<glyph name="exclam" format="2">
  <advance width="492"/>
  <unicode hex="0021"/>
  <note>
exclam
</note>
  <outline>
    <contour>
      <point x="216" y="377" type="line"/>
      <point x="277" y="377" type="line"/>
      <point x="306" y="1462" type="line"/>
      <point x="187" y="1462" type="line"/>
    </contour>
    <contour>
      <point x="245" y="-20" type="curve" smooth="yes"/>
      <point x="300" y="-20"/>
      <point x="327" y="13"/>
      <point x="327" y="78" type="curve" smooth="yes"/>
      <point x="327" y="143"/>
      <point x="300" y="176"/>
      <point x="245" y="176" type="curve" smooth="yes"/>
      <point x="192" y="176"/>
      <point x="165" y="143"/>
      <point x="165" y="78" type="curve" smooth="yes"/>
      <point x="165" y="13"/>
      <point x="192" y="-20"/>
    </contour>
  </outline>
</glyph>
<glyph name="Y" format="2">
  <advance width="1081"/>
  <unicode hex="0059"/>
  <anchor x="541" y="0" name="bottom"/>
  <anchor x="541" y="1462" name="top"/>
  <anchor x="20" y="1462" name="topleft"/>
  <outline>
    <contour>
      <point x="117" y="1462" type="line"/>
      <point x="0" y="1462" type="line"/>
      <point x="489" y="557" type="line"/>
      <point x="489" y="0" type="line"/>
      <point x="594" y="0" type="line"/>
      <point x="594" y="565" type="line"/>
      <point x="1081" y="1462" type="line"/>
      <point x="971" y="1462" type="line"/>
      <point x="543" y="662" type="line"/>
    </contour>
  </outline>
</glyph>
<glyph name="z" format="2">
  <advance width="944"/>
  <unicode hex="007A"/>
  <anchor x="472" y="0" name="bottom"/>
  <anchor x="472" y="1087" name="top"/>
  <outline>
    <contour>
      <point x="858" y="88" type="line"/>
      <point x="207" y="88" type="line"/>
      <point x="856" y="1024" type="line"/>
      <point x="856" y="1087" type="line"/>
      <point x="129" y="1087" type="line"/>
      <point x="129" y="999" type="line"/>
      <point x="727" y="999" type="line"/>
      <point x="82" y="63" type="line"/>
      <point x="82" y="0" type="line"/>
      <point x="858" y="0" type="line"/>
    </contour>
  </outline>
</glyph>
<glyph name="acutecomb" format="2">
  <unicode hex="0301"/>
  <note>
acutecomb
</note>
  <anchor x="-96" y="1127" name="_top"/>
  <anchor x="4" y="1569" name="top"/>
  <outline>
    <contour>
      <point x="-187" y="1241" type="line"/>
      <point x="-117" y="1241" type="line"/>
      <point x="22" y="1357"/>
      <point x="148" y="1483"/>
      <point x="196" y="1552" type="curve"/>
      <point x="196" y="1569" type="line"/>
      <point x="55" y="1569" type="line"/>
      <point x="20" y="1505"/>
      <point x="-90" y="1362"/>
      <point x="-187" y="1257" type="curve"/>
    </contour>
  </outline>
</glyph>
<glyph name="circumflexcomb" format="2">
  <unicode hex="0302"/>
  <note>
circumflex
</note>
  <anchor x="291" y="1127" name="_top"/>
  <anchor x="291" y="1569" name="top"/>
  <outline>
    <contour>
      <point x="0" y="1209" type="line"/>
      <point x="70" y="1209" type="line"/>
      <point x="108" y="1240"/>
      <point x="145" y="1273"/>
      <point x="182" y="1307" type="curve" smooth="yes"/>
      <point x="219" y="1342"/>
      <point x="255" y="1378"/>
      <point x="291" y="1416" type="curve"/>
      <point x="323" y="1381"/>
      <point x="358" y="1347"/>
      <point x="394" y="1313" type="curve" smooth="yes"/>
      <point x="431" y="1278"/>
      <point x="471" y="1243"/>
      <point x="512" y="1209" type="curve"/>
      <point x="582" y="1209" type="line"/>
      <point x="582" y="1225" type="line"/>
      <point x="466" y="1353"/>
      <point x="385" y="1457"/>
      <point x="340" y="1537" type="curve"/>
      <point x="242" y="1537" type="line"/>
      <point x="187" y="1448"/>
      <point x="83" y="1314"/>
      <point x="0" y="1225" type="curve"/>
    </contour>
  </outline>
</glyph>
<glyph name="tildecomb" format="2">
  <unicode hex="0303"/>
  <note>
tildecomb
</note>
  <anchor x="27" y="1127" name="_top"/>
  <anchor x="47" y="1481" name="top"/>
  <outline>
    <contour>
      <point x="-303" y="1209" type="curve"/>
      <point x="-230" y="1209" type="line"/>
      <point x="-206" y="1325"/>
      <point x="-167" y="1365"/>
      <point x="-107" y="1365" type="curve" smooth="yes"/>
      <point x="-64" y="1365"/>
      <point x="-25" y="1334"/>
      <point x="19" y="1299" type="curve" smooth="yes"/>
      <point x="102" y="1228"/>
      <point x="147" y="1209"/>
      <point x="195" y="1209" type="curve" smooth="yes"/>
      <point x="300" y="1209"/>
      <point x="375" y="1292"/>
      <point x="396" y="1447" type="curve"/>
      <point x="320" y="1447" type="line"/>
      <point x="297" y="1336"/>
      <point x="256" y="1291"/>
      <point x="195" y="1291" type="curve" smooth="yes"/>
      <point x="156" y="1291"/>
      <point x="113" y="1326"/>
      <point x="68" y="1363" type="curve" smooth="yes"/>
      <point x="12" y="1408"/>
      <point x="-39" y="1447"/>
      <point x="-103" y="1447" type="curve" smooth="yes"/>
      <point x="-215" y="1447"/>
      <point x="-290" y="1357"/>
    </contour>
  </outline>
</glyph>
<glyph name="brevecomb" format="2">
  <unicode hex="0306"/>
  <note>
breve
</note>
  <anchor x="29" y="1127" name="_top"/>
  <anchor x="29" y="1487" name="top"/>
  <outline>
    <contour>
      <point x="28" y="1208" type="curve" smooth="yes"/>
      <point x="193" y="1208"/>
      <point x="286" y="1290"/>
      <point x="306" y="1454" type="curve"/>
      <point x="226" y="1454" type="line"/>
      <point x="206" y="1338"/>
      <point x="147" y="1292"/>
      <point x="30" y="1292" type="curve" smooth="yes"/>
      <point x="-88" y="1292"/>
      <point x="-147" y="1338"/>
      <point x="-166" y="1454" type="curve"/>
      <point x="-248" y="1454" type="line"/>
      <point x="-233" y="1290"/>
      <point x="-142" y="1208"/>
    </contour>
  </outline>
</glyph>
<glyph name="dotaccentcomb" format="2">
  <unicode hex="0307"/>
  <note>
dotaccent
</note>
  <anchor x="1" y="1087" name="_top"/>
  <anchor x="1" y="1485" name="top"/>
  <outline>
    <contour>
      <point x="0" y="1228" type="curve" smooth="yes"/>
      <point x="42" y="1228"/>
      <point x="66" y="1265"/>
      <point x="66" y="1325" type="curve" smooth="yes"/>
      <point x="66" y="1386"/>
      <point x="42" y="1421"/>
      <point x="0" y="1421" type="curve" smooth="yes"/>
      <point x="-43" y="1421"/>
      <point x="-64" y="1389"/>
      <point x="-64" y="1325" type="curve" smooth="yes"/>
      <point x="-64" y="1260"/>
      <point x="-43" y="1228"/>
    </contour>
  </outline>
</glyph>
<glyph name="dieresiscomb" format="2">
  <unicode hex="0308"/>
  <note>
dieresis
</note>
  <anchor x="633" y="1127" name="_top"/>
  <anchor x="633" y="1475" name="top"/>
  <outline>
    <contour>
      <point x="816" y="1228" type="curve" smooth="yes"/>
      <point x="859" y="1228"/>
      <point x="880" y="1257"/>
      <point x="880" y="1314" type="curve" smooth="yes"/>
      <point x="880" y="1371"/>
      <point x="859" y="1400"/>
      <point x="816" y="1400" type="curve" smooth="yes"/>
      <point x="773" y="1400"/>
      <point x="753" y="1375"/>
      <point x="753" y="1314" type="curve" smooth="yes"/>
      <point x="753" y="1257"/>
      <point x="774" y="1228"/>
    </contour>
    <contour>
      <point x="435" y="1228" type="curve" smooth="yes"/>
      <point x="478" y="1228"/>
      <point x="499" y="1257"/>
      <point x="499" y="1314" type="curve" smooth="yes"/>
      <point x="499" y="1371"/>
      <point x="478" y="1400"/>
      <point x="435" y="1400" type="curve" smooth="yes"/>
      <point x="392" y="1400"/>
      <point x="372" y="1375"/>
      <point x="372" y="1314" type="curve" smooth="yes"/>
      <point x="372" y="1257"/>
      <point x="393" y="1228"/>
    </contour>
  </outline>
</glyph>
<glyph name="hookabovecomb" format="2">
  <unicode hex="0309"/>
  <note>
hookabovecomb
</note>
  <anchor x="-56" y="1087" name="_top"/>
  <anchor x="0" y="1679" name="top"/>
  <outline>
    <contour>
      <point x="-90" y="1208" type="line"/>
      <point x="-10" y="1208" type="line"/>
      <point x="0" y="1329" type="line"/>
      <point x="112" y="1353"/>
      <point x="168" y="1412"/>
      <point x="168" y="1505" type="curve" smooth="yes"/>
      <point x="168" y="1616"/>
      <point x="83" y="1679"/>
      <point x="-61" y="1679" type="curve" smooth="yes"/>
      <point x="-98" y="1679"/>
      <point x="-133" y="1675"/>
      <point x="-168" y="1667" type="curve"/>
      <point x="-168" y="1589" type="line"/>
      <point x="-138" y="1594"/>
      <point x="-107" y="1597"/>
      <point x="-75" y="1597" type="curve" smooth="yes"/>
      <point x="29" y="1597"/>
      <point x="70" y="1565"/>
      <point x="70" y="1501" type="curve" smooth="yes"/>
      <point x="70" y="1442"/>
      <point x="19" y="1406"/>
      <point x="-100" y="1386" type="curve"/>
    </contour>
  </outline>
</glyph>
<glyph name="ringcomb" format="2">
  <unicode hex="030A"/>
  <note>
ring
</note>
  <anchor x="2" y="1087" name="_top"/>
  <anchor x="2" y="1667" name="top"/>
  <outline>
    <contour>
      <point x="-3" y="1211" type="curve" smooth="yes"/>
      <point x="126" y="1211"/>
      <point x="214" y="1295"/>
      <point x="214" y="1424" type="curve" smooth="yes"/>
      <point x="214" y="1548"/>
      <point x="126" y="1635"/>
      <point x="-3" y="1635" type="curve" smooth="yes"/>
      <point x="-132" y="1635"/>
      <point x="-220" y="1549"/>
      <point x="-220" y="1424" type="curve" smooth="yes"/>
      <point x="-220" y="1295"/>
      <point x="-132" y="1211"/>
    </contour>
    <contour>
      <point x="-3" y="1283" type="curve" smooth="yes"/>
      <point x="-86" y="1283"/>
      <point x="-140" y="1336"/>
      <point x="-140" y="1424" type="curve" smooth="yes"/>
      <point x="-140" y="1508"/>
      <point x="-86" y="1563"/>
      <point x="-3" y="1563" type="curve" smooth="yes"/>
      <point x="76" y="1563"/>
      <point x="134" y="1509"/>
      <point x="134" y="1424" type="curve" smooth="yes"/>
      <point x="134" y="1336"/>
      <point x="80" y="1283"/>
    </contour>
  </outline>
</glyph>
<glyph name="dblgravecomb" format="2">
  <unicode hex="030F"/>
  <note>
uni030F
</note>
  <anchor x="0" y="1087" name="_top"/>
  <anchor x="0" y="1569" name="top"/>
  <outline>
    <contour>
      <point x="260" y="1208" type="curve"/>
      <point x="330" y="1208" type="line"/>
      <point x="330" y="1224" type="line"/>
      <point x="267" y="1293"/>
      <point x="207" y="1409"/>
      <point x="141" y="1536" type="curve"/>
      <point x="6" y="1536" type="line"/>
      <point x="6" y="1519" type="line"/>
      <point x="70" y="1418"/>
      <point x="184" y="1275"/>
    </contour>
    <contour>
      <point x="-78" y="1208" type="curve"/>
      <point x="-8" y="1208" type="line"/>
      <point x="-8" y="1224" type="line"/>
      <point x="-65" y="1283"/>
      <point x="-131" y="1408"/>
      <point x="-197" y="1536" type="curve"/>
      <point x="-332" y="1536" type="line"/>
      <point x="-332" y="1519" type="line"/>
      <point x="-268" y="1418"/>
      <point x="-154" y="1275"/>
    </contour>
  </outline>
</glyph>
<glyph name="commaturnedabovecomb" format="2">
  <unicode hex="0312"/>
  <anchor x="-60" y="1087" name="_top"/>
  <anchor x="0" y="1569" name="top"/>
  <outline>
    <contour>
      <point x="-100" y="1209" type="line"/>
      <point x="12" y="1209" type="line"/>
      <point x="20" y="1277"/>
      <point x="62" y="1443"/>
      <point x="98" y="1520" type="curve"/>
      <point x="98" y="1537" type="line"/>
      <point x="45" y="1537" type="line"/>
      <point x="-11" y="1456"/>
      <point x="-73" y="1326"/>
      <point x="-100" y="1223" type="curve"/>
    </contour>
  </outline>
</glyph>
<glyph name="dotbelowcomb" format="2">
  <unicode hex="0323"/>
  <note>
dotbelowcomb
</note>
  <anchor x="0" y="0" name="_bottom"/>
  <anchor x="0" y="-324" name="bottom"/>
  <outline>
    <contour>
      <point x="-1" y="-323" type="curve" smooth="yes"/>
      <point x="40" y="-323"/>
      <point x="65" y="-286"/>
      <point x="65" y="-226" type="curve" smooth="yes"/>
      <point x="65" y="-165"/>
      <point x="40" y="-130"/>
      <point x="-1" y="-130" type="curve" smooth="yes"/>
      <point x="-44" y="-130"/>
      <point x="-65" y="-162"/>
      <point x="-65" y="-226" type="curve" smooth="yes"/>
      <point x="-65" y="-291"/>
      <point x="-44" y="-323"/>
    </contour>
  </outline>
</glyph>
<glyph name="ogonekcomb" format="2">
  <unicode hex="0328"/>
  <note>
ogonek
</note>
  <anchor x="3" y="10" name="_ogonek"/>
  <outline>
    <contour>
      <point x="44" y="-446" type="curve" smooth="yes"/>
      <point x="87" y="-446"/>
      <point x="121" y="-441"/>
      <point x="148" y="-430" type="curve"/>
      <point x="148" y="-346" type="line"/>
      <point x="126" y="-354"/>
      <point x="99" y="-358"/>
      <point x="66" y="-358" type="curve" smooth="yes"/>
      <point x="-6" y="-358"/>
      <point x="-41" y="-321"/>
      <point x="-41" y="-248" type="curve" smooth="yes"/>
      <point x="-41" y="-152"/>
      <point x="7" y="-84"/>
      <point x="103" y="0" type="curve"/>
      <point x="13" y="0" type="line"/>
      <point x="-84" y="-75"/>
      <point x="-140" y="-171"/>
      <point x="-140" y="-264" type="curve" smooth="yes"/>
      <point x="-140" y="-380"/>
      <point x="-69" y="-446"/>
    </contour>
  </outline>
</glyph>
<glyph name="Sha-cy" format="2">
  <advance width="2060"/>
  <unicode hex="0428"/>
  <note>
afii10042
</note>
  <outline>
    <contour>
      <point x="207" y="0" type="line"/>
      <point x="1853" y="0" type="line"/>
      <point x="1853" y="1462" type="line"/>
      <point x="1751" y="1462" type="line"/>
      <point x="1751" y="96" type="line"/>
      <point x="1081" y="96" type="line"/>
      <point x="1081" y="1462" type="line"/>
      <point x="979" y="1462" type="line"/>
      <point x="979" y="96" type="line"/>
      <point x="309" y="96" type="line"/>
      <point x="309" y="1462" type="line"/>
      <point x="207" y="1462" type="line"/>
    </contour>
  </outline>
</glyph>
<glyph name="be-cy" format="2">
  <advance width="1176"/>
  <unicode hex="0431"/>
  <note>
afii10066
</note>
  <outline>
    <contour>
      <point x="599" y="-20" type="curve" smooth="yes"/>
      <point x="887" y="-20"/>
      <point x="1059" y="179"/>
      <point x="1059" y="518" type="curve" smooth="yes"/>
      <point x="1059" y="833"/>
      <point x="910" y="1012"/>
      <point x="654" y="1012" type="curve" smooth="yes"/>
      <point x="505" y="1012"/>
      <point x="380" y="951"/>
      <point x="231" y="776" type="curve"/>
      <point x="225" y="776" type="line"/>
      <point x="236" y="1001"/>
      <point x="279" y="1153"/>
      <point x="356" y="1251" type="curve" smooth="yes"/>
      <point x="439.34811323477675" y="1357.0794168442612"/>
      <point x="545" y="1384"/>
      <point x="909" y="1454" type="curve" smooth="yes"/>
      <point x="949" y="1462"/>
      <point x="996" y="1470"/>
      <point x="1036" y="1478" type="curve"/>
      <point x="1018" y="1563" type="line"/>
      <point x="942" y="1549"/>
      <point x="823" y="1527"/>
      <point x="791" y="1520" type="curve" smooth="yes"/>
      <point x="707" y="1502"/>
      <point x="560" y="1466"/>
      <point x="519" y="1452" type="curve" smooth="yes"/>
      <point x="410" y="1415"/>
      <point x="323" y="1365"/>
      <point x="259" y="1269" type="curve" smooth="yes"/>
      <point x="167" y="1132"/>
      <point x="123" y="933"/>
      <point x="123" y="686" type="curve" smooth="yes"/>
      <point x="123" y="201"/>
      <point x="295" y="-20"/>
    </contour>
    <contour>
      <point x="606" y="70" type="curve" smooth="yes"/>
      <point x="482" y="70"/>
      <point x="394" y="120"/>
      <point x="333" y="203" type="curve" smooth="yes"/>
      <point x="255" y="309"/>
      <point x="223" y="470"/>
      <point x="223" y="649" type="curve"/>
      <point x="333" y="821"/>
      <point x="477" y="922"/>
      <point x="645" y="922" type="curve" smooth="yes"/>
      <point x="841" y="922"/>
      <point x="954" y="783"/>
      <point x="954" y="512" type="curve" smooth="yes"/>
      <point x="954" y="227"/>
      <point x="828" y="70"/>
    </contour>
  </outline>
</glyph>
<glyph name="te-cy" format="2">
  <advance width="913"/>
  <unicode hex="0442"/>
  <note>
afii10084
</note>
  <anchor x="893" y="0" name="bottomright"/>
  <outline>
    <contour>
      <point x="412" y="0" type="line"/>
      <point x="510" y="0" type="line"/>
      <point x="510" y="1001" type="line"/>
      <point x="872" y="1001" type="line"/>
      <point x="872" y="1087" type="line"/>
      <point x="41" y="1087" type="line"/>
      <point x="41" y="1001" type="line"/>
      <point x="412" y="1001" type="line"/>
    </contour>
  </outline>
</glyph>
<glyph name="Uk-cy" format="2">
  <advance width="2337"/>
  <unicode hex="0478"/>
  <note>
uni0478
</note>
  <outline>
    <contour>
      <point x="1282" y="733" type="curve" smooth="yes"/>
      <point x="1282" y="1198"/>
      <point x="1064" y="1485"/>
      <point x="700" y="1485" type="curve" smooth="yes"/>
      <point x="338" y="1485"/>
      <point x="115" y="1200"/>
      <point x="115" y="735" type="curve" smooth="yes"/>
      <point x="115" y="268"/>
      <point x="335" y="-20"/>
      <point x="698" y="-20" type="curve" smooth="yes"/>
      <point x="1063" y="-20"/>
      <point x="1282" y="269"/>
    </contour>
    <contour>
      <point x="214" y="733" type="curve" smooth="yes"/>
      <point x="214" y="1150"/>
      <point x="389" y="1386"/>
      <point x="700" y="1386" type="curve" smooth="yes"/>
      <point x="1012" y="1386"/>
      <point x="1183" y="1154"/>
      <point x="1183" y="733" type="curve" smooth="yes"/>
      <point x="1183" y="310"/>
      <point x="1013" y="76"/>
      <point x="698" y="76" type="curve" smooth="yes"/>
      <point x="387" y="76"/>
      <point x="214" y="314"/>
    </contour>
    <component base="y" xOffset="1397"/>
  </outline>
</glyph>
<glyph name="sheva-hb" format="2">
  <unicode hex="05B0"/>
  <note>
afii57799
</note>
  <anchor x="10" y="-60" name="_bottom"/>
  <outline>
    <contour>
      <point x="8" y="-230" type="curve" smooth="yes"/>
      <point x="51" y="-230"/>
      <point x="72" y="-205"/>
      <point x="72" y="-155" type="curve" smooth="yes"/>
      <point x="72" y="-105"/>
      <point x="51" y="-80"/>
      <point x="8" y="-80" type="curve" smooth="yes"/>
      <point x="-33" y="-80"/>
      <point x="-53" y="-105"/>
      <point x="-53" y="-155" type="curve" smooth="yes"/>
      <point x="-53" y="-205"/>
      <point x="-33" y="-230"/>
    </contour>
    <contour>
      <point x="8" y="-494" type="curve" smooth="yes"/>
      <point x="51" y="-494"/>
      <point x="72" y="-469"/>
      <point x="72" y="-418" type="curve" smooth="yes"/>
      <point x="72" y="-368"/>
      <point x="51" y="-343"/>
      <point x="8" y="-343" type="curve" smooth="yes"/>
      <point x="-33" y="-343"/>
      <point x="-53" y="-368"/>
      <point x="-53" y="-418" type="curve" smooth="yes"/>
      <point x="-53" y="-469"/>
      <point x="-33" y="-494"/>
    </contour>
  </outline>
</glyph>
<glyph name="patah-hb" format="2">
  <unicode hex="05B7"/>
  <note>
afii57798
</note>
  <anchor x="-4" y="33" name="_bottom"/>
  <outline>
    <contour>
      <point x="-184" y="-183" type="line"/>
      <point x="173" y="-183" type="line"/>
      <point x="173" y="-111" type="line"/>
      <point x="-184" y="-111" type="line"/>
    </contour>
  </outline>
</glyph>
<glyph name="holam-hb" format="2">
  <unicode hex="05B9"/>
  <note>
afii57806
</note>
  <anchor x="-1" y="1383" name="_top"/>
  <outline>
    <contour>
      <point x="0" y="1403" type="curve" smooth="yes"/>
      <point x="43" y="1403"/>
      <point x="64" y="1428"/>
      <point x="64" y="1478" type="curve" smooth="yes"/>
      <point x="64" y="1528"/>
      <point x="43" y="1553"/>
      <point x="0" y="1553" type="curve" smooth="yes"/>
      <point x="-41" y="1553"/>
      <point x="-61" y="1528"/>
      <point x="-61" y="1478" type="curve" smooth="yes"/>
      <point x="-61" y="1428"/>
      <point x="-41" y="1403"/>
    </contour>
  </outline>
</glyph>
<glyph name="holamhaser-hb" format="2">
  <unicode hex="05BA"/>
  <note>
uni05BA
</note>
  <anchor x="91" y="1190" name="_topleft"/>
  <outline>
    <contour>
      <point x="7" y="1210" type="curve" smooth="yes"/>
      <point x="50" y="1210"/>
      <point x="71" y="1235"/>
      <point x="71" y="1285" type="curve" smooth="yes"/>
      <point x="71" y="1335"/>
      <point x="50" y="1360"/>
      <point x="7" y="1360" type="curve" smooth="yes"/>
      <point x="-33" y="1360"/>
      <point x="-53" y="1335"/>
      <point x="-53" y="1285" type="curve" smooth="yes"/>
      <point x="-53" y="1235"/>
      <point x="-33" y="1210"/>
    </contour>
  </outline>
</glyph>
<glyph name="qubuts-hb" format="2">
  <unicode hex="05BB"/>
  <note>
afii57796
</note>
  <anchor x="10" y="-60" name="_bottom"/>
  <outline>
    <contour>
      <point x="-135" y="-230" type="curve" smooth="yes"/>
      <point x="-93" y="-230"/>
      <point x="-72" y="-205"/>
      <point x="-72" y="-155" type="curve" smooth="yes"/>
      <point x="-72" y="-105"/>
      <point x="-93" y="-80"/>
      <point x="-135" y="-80" type="curve" smooth="yes"/>
      <point x="-176" y="-80"/>
      <point x="-196" y="-105"/>
      <point x="-196" y="-155" type="curve" smooth="yes"/>
      <point x="-196" y="-205"/>
      <point x="-176" y="-230"/>
    </contour>
    <contour>
      <point x="7" y="-362" type="curve" smooth="yes"/>
      <point x="50" y="-362"/>
      <point x="71" y="-337"/>
      <point x="71" y="-286" type="curve" smooth="yes"/>
      <point x="71" y="-236"/>
      <point x="50" y="-211"/>
      <point x="7" y="-211" type="curve" smooth="yes"/>
      <point x="-34" y="-211"/>
      <point x="-54" y="-236"/>
      <point x="-54" y="-286" type="curve" smooth="yes"/>
      <point x="-54" y="-337"/>
      <point x="-34" y="-362"/>
    </contour>
    <contour>
      <point x="152" y="-494" type="curve" smooth="yes"/>
      <point x="194" y="-494"/>
      <point x="215" y="-469"/>
      <point x="215" y="-418" type="curve" smooth="yes"/>
      <point x="215" y="-368"/>
      <point x="194" y="-343"/>
      <point x="152" y="-343" type="curve" smooth="yes"/>
      <point x="111" y="-343"/>
      <point x="91" y="-368"/>
      <point x="91" y="-418" type="curve" smooth="yes"/>
      <point x="91" y="-469"/>
      <point x="111" y="-494"/>
    </contour>
  </outline>
</glyph>
<glyph name="vav-hb" format="2">
  <advance width="466"/>
  <unicode hex="05D5"/>
  <note>
afii57669
</note>
  <anchor x="233" y="0" name="bottom"/>
  <anchor x="20" y="0" name="bottomleft"/>
  <anchor x="0" y="665" name="center"/>
  <anchor x="233" y="1287" name="top"/>
  <anchor x="20" y="1087" name="topleft"/>
  <outline>
    <contour>
      <point x="182" y="0" type="line"/>
      <point x="284" y="0" type="line"/>
      <point x="284" y="1290" type="line"/>
      <point x="182" y="1290" type="line"/>
    </contour>
  </outline>
</glyph>
<glyph name="zayin-hb" format="2">
  <advance width="466"/>
  <unicode hex="05D6"/>
  <note>
afii57670
</note>
  <anchor x="233" y="0" name="bottom"/>
  <anchor x="20" y="0" name="bottomleft"/>
  <anchor x="0" y="666" name="center"/>
  <anchor x="233" y="1087" name="top"/>
  <anchor x="20" y="1087" name="topleft"/>
  <outline>
    <contour>
      <point x="181" y="0" type="line"/>
      <point x="283" y="0" type="line"/>
      <point x="283" y="815" type="line" smooth="yes"/>
      <point x="283" y="859"/>
      <point x="287" y="901"/>
      <point x="295" y="941" type="curve" smooth="yes"/>
      <point x="306" y="997"/>
      <point x="323" y="1048"/>
      <point x="344" y="1091" type="curve" smooth="yes"/>
      <point x="370" y="1144"/>
      <point x="402" y="1187"/>
      <point x="435" y="1213" type="curve"/>
      <point x="435" y="1290" type="line"/>
      <point x="37" y="1290" type="line"/>
      <point x="37" y="1202" type="line"/>
      <point x="326" y="1202" type="line"/>
      <point x="300" y="1179"/>
      <point x="272" y="1139"/>
      <point x="241" y="1084" type="curve" smooth="yes"/>
      <point x="206" y="1020"/>
      <point x="181" y="920"/>
      <point x="181" y="815" type="curve" smooth="yes"/>
    </contour>
  </outline>
</glyph>
<glyph name="het-hb" format="2">
  <advance width="1256"/>
  <unicode hex="05D7"/>
  <note>
afii57671
</note>
  <anchor x="628" y="0" name="bottom"/>
  <anchor x="20" y="0" name="bottomleft"/>
  <anchor x="628" y="544" name="center"/>
  <anchor x="628" y="1087" name="top"/>
  <anchor x="20" y="1087" name="topleft"/>
  <outline>
    <contour>
      <point x="182" y="0" type="line"/>
      <point x="284" y="0" type="line"/>
      <point x="284" y="1205" type="line"/>
      <point x="411" y="1215"/>
      <point x="509" y="1220"/>
      <point x="578" y="1220" type="curve" smooth="yes"/>
      <point x="647" y="1220"/>
      <point x="698" y="1218"/>
      <point x="731" y="1214" type="curve" smooth="yes"/>
      <point x="898" y="1197"/>
      <point x="983" y="1125"/>
      <point x="983" y="946" type="curve" smooth="yes"/>
      <point x="983" y="0" type="line"/>
      <point x="1086" y="0" type="line"/>
      <point x="1086" y="946" type="line" smooth="yes"/>
      <point x="1086" y="1005"/>
      <point x="1078" y="1056"/>
      <point x="1061" y="1100" type="curve" smooth="yes"/>
      <point x="1027" y="1187"/>
      <point x="973" y="1236"/>
      <point x="889" y="1269" type="curve" smooth="yes"/>
      <point x="805" y="1301"/>
      <point x="733" y="1310"/>
      <point x="581" y="1310" type="curve" smooth="yes"/>
      <point x="505" y="1310"/>
      <point x="402" y="1305"/>
      <point x="273" y="1296" type="curve" smooth="yes"/>
      <point x="218" y="1292"/>
      <point x="187" y="1290"/>
      <point x="182" y="1290" type="curve"/>
    </contour>
  </outline>
</glyph>
<glyph name="lamed-hb" format="2">
  <advance width="930"/>
  <unicode hex="05DC"/>
  <note>
afii57676
</note>
  <anchor x="465" y="0" name="bottom"/>
  <anchor x="20" y="0" name="bottomleft"/>
  <anchor x="318" y="665" name="center"/>
  <anchor x="465" y="1087" name="top"/>
  <anchor x="20" y="1087" name="topleft"/>
  <outline>
    <contour>
      <point x="461" y="0" type="line"/>
      <point x="565" y="0" type="line"/>
      <point x="656" y="507" type="line"/>
      <point x="848" y="1182" type="line"/>
      <point x="848" y="1296" type="line"/>
      <point x="147" y="1296" type="line"/>
      <point x="147" y="1569" type="line"/>
      <point x="45" y="1569" type="line"/>
      <point x="45" y="1200" type="line"/>
      <point x="753" y="1200" type="line"/>
      <point x="550" y="494" type="line"/>
    </contour>
  </outline>
</glyph>
<glyph name="nun-hb" format="2">
  <advance width="884"/>
  <unicode hex="05E0"/>
  <note>
afii57680
</note>
  <anchor x="442" y="0" name="bottom"/>
  <anchor x="20" y="0" name="bottomleft"/>
  <anchor x="392" y="666" name="center"/>
  <anchor x="442" y="1087" name="top"/>
  <anchor x="20" y="1087" name="topleft"/>
  <outline>
    <contour>
      <point x="129" y="0" type="line"/>
      <point x="675" y="0" type="line"/>
      <point x="684" y="50" type="line" smooth="yes"/>
      <point x="697" y="115"/>
      <point x="714" y="242"/>
      <point x="714" y="333" type="curve" smooth="yes"/>
      <point x="714" y="1015" type="line" smooth="yes"/>
      <point x="714" y="1091"/>
      <point x="697" y="1157"/>
      <point x="663" y="1206" type="curve" smooth="yes"/>
      <point x="642" y="1238"/>
      <point x="614" y="1263"/>
      <point x="580" y="1281" type="curve" smooth="yes"/>
      <point x="543" y="1300"/>
      <point x="499" y="1310"/>
      <point x="448" y="1310" type="curve" smooth="yes"/>
      <point x="383" y="1310"/>
      <point x="326" y="1305"/>
      <point x="276" y="1295" type="curve"/>
      <point x="276" y="1203" type="line"/>
      <point x="335" y="1214"/>
      <point x="392" y="1220"/>
      <point x="448" y="1220" type="curve" smooth="yes"/>
      <point x="494" y="1220"/>
      <point x="530" y="1206"/>
      <point x="557" y="1181" type="curve" smooth="yes"/>
      <point x="594" y="1145"/>
      <point x="612" y="1087.001"/>
      <point x="612" y="1015" type="curve" smooth="yes"/>
      <point x="612" y="333" type="line" smooth="yes"/>
      <point x="612" y="254"/>
      <point x="603" y="173"/>
      <point x="585" y="88" type="curve"/>
      <point x="129" y="88" type="line"/>
    </contour>
  </outline>
</glyph>
<glyph name="samekh-hb" format="2">
  <advance width="1207"/>
  <unicode hex="05E1"/>
  <note>
afii57681
</note>
  <anchor x="604" y="0" name="bottom"/>
  <anchor x="20" y="0" name="bottomleft"/>
  <anchor x="604" y="665" name="center"/>
  <anchor x="604" y="1087" name="top"/>
  <anchor x="20" y="1087" name="topleft"/>
  <outline>
    <contour>
      <point x="603" y="-20" type="curve" smooth="yes"/>
      <point x="695" y="-20"/>
      <point x="776" y="0"/>
      <point x="843" y="39" type="curve" smooth="yes"/>
      <point x="942" y="97"/>
      <point x="1013" y="197"/>
      <point x="1052" y="341" type="curve" smooth="yes"/>
      <point x="1076" y="428"/>
      <point x="1088" y="530"/>
      <point x="1088" y="648" type="curve" smooth="yes"/>
      <point x="1088" y="805"/>
      <point x="1066" y="933"/>
      <point x="1025" y="1033" type="curve" smooth="yes"/>
      <point x="991" y="1114"/>
      <point x="945" y="1177"/>
      <point x="886" y="1222" type="curve" smooth="yes"/>
      <point x="811" y="1281"/>
      <point x="715" y="1310"/>
      <point x="603" y="1310" type="curve" smooth="yes"/>
      <point x="474" y="1310"/>
      <point x="320" y="1305"/>
      <point x="139" y="1296" type="curve"/>
      <point x="139" y="1204" type="line"/>
      <point x="306" y="1211" type="line"/>
      <point x="302" y="1208" type="line"/>
      <point x="180" y="1098"/>
      <point x="119" y="912"/>
      <point x="119" y="648" type="curve" smooth="yes"/>
      <point x="119" y="515"/>
      <point x="134" y="403"/>
      <point x="163" y="310" type="curve" smooth="yes"/>
      <point x="204" y="182"/>
      <point x="271" y="92"/>
      <point x="362" y="39" type="curve" smooth="yes"/>
      <point x="430" y="-1"/>
      <point x="511" y="-20"/>
    </contour>
    <contour>
      <point x="602" y="70" type="curve" smooth="yes"/>
      <point x="486" y="70"/>
      <point x="397" y="112"/>
      <point x="341" y="179" type="curve" smooth="yes"/>
      <point x="264" y="270"/>
      <point x="226" y="427"/>
      <point x="226" y="648" type="curve" smooth="yes"/>
      <point x="226" y="915"/>
      <point x="284" y="1089"/>
      <point x="415" y="1214" type="curve"/>
      <point x="476" y="1219"/>
      <point x="529" y="1220"/>
      <point x="612" y="1220" type="curve" smooth="yes"/>
      <point x="689" y="1220"/>
      <point x="766" y="1196"/>
      <point x="818" y="1157" type="curve" smooth="yes"/>
      <point x="915" y="1082"/>
      <point x="979" y="936"/>
      <point x="979" y="648" type="curve" smooth="yes"/>
      <point x="979" y="479"/>
      <point x="955" y="286"/>
      <point x="864" y="179" type="curve" smooth="yes"/>
      <point x="808" y="112"/>
      <point x="718" y="70"/>
    </contour>
  </outline>
</glyph>
<glyph name="pe-hb" format="2">
  <advance width="1190"/>
  <unicode hex="05E4"/>
  <note>
afii57684
</note>
  <anchor x="595" y="0" name="bottom"/>
  <anchor x="20" y="0" name="bottomleft"/>
  <anchor x="595" y="845" name="center"/>
  <anchor x="595" y="1087" name="top"/>
  <anchor x="20" y="1087" name="topleft"/>
  <outline>
    <contour>
      <point x="587" y="-20" type="curve" smooth="yes"/>
      <point x="690" y="-20"/>
      <point x="778" y="4"/>
      <point x="850" y="53" type="curve" smooth="yes"/>
      <point x="909" y="93"/>
      <point x="957" y="149"/>
      <point x="993" y="223" type="curve" smooth="yes"/>
      <point x="1044" y="328"/>
      <point x="1071" y="468"/>
      <point x="1071" y="645" type="curve" smooth="yes"/>
      <point x="1071" y="825"/>
      <point x="1043" y="967"/>
      <point x="990" y="1073" type="curve" smooth="yes"/>
      <point x="955" y="1144"/>
      <point x="908" y="1199"/>
      <point x="850" y="1238" type="curve" smooth="yes"/>
      <point x="778" y="1286"/>
      <point x="690" y="1310"/>
      <point x="587" y="1310" type="curve" smooth="yes"/>
      <point x="467" y="1310"/>
      <point x="361" y="1273"/>
      <point x="268" y="1198" type="curve" smooth="yes"/>
      <point x="179" y="1126"/>
      <point x="119" y="1004"/>
      <point x="119" y="859" type="curve" smooth="yes"/>
      <point x="119" y="765"/>
      <point x="141" y="681"/>
      <point x="181" y="615" type="curve" smooth="yes"/>
      <point x="211" y="564"/>
      <point x="251" y="523"/>
      <point x="298" y="493" type="curve" smooth="yes"/>
      <point x="352" y="459"/>
      <point x="415" y="441"/>
      <point x="485" y="441" type="curve" smooth="yes"/>
      <point x="490" y="441" type="line"/>
      <point x="506" y="520" type="line"/>
      <point x="492" y="520" type="line" smooth="yes"/>
      <point x="418" y="520"/>
      <point x="355" y="547"/>
      <point x="306" y="593" type="curve" smooth="yes"/>
      <point x="244" y="653"/>
      <point x="207" y="747"/>
      <point x="207" y="859" type="curve" smooth="yes"/>
      <point x="207" y="962"/>
      <point x="254" y="1068"/>
      <point x="330" y="1136" type="curve" smooth="yes"/>
      <point x="386" y="1186"/>
      <point x="477" y="1220"/>
      <point x="589" y="1220" type="curve" smooth="yes"/>
      <point x="645" y="1220"/>
      <point x="695" y="1210"/>
      <point x="740" y="1191" type="curve" smooth="yes"/>
      <point x="828" y="1152"/>
      <point x="881" y="1087"/>
      <point x="916" y="988" type="curve" smooth="yes"/>
      <point x="951" y="888"/>
      <point x="963" y="782"/>
      <point x="963" y="645" type="curve" smooth="yes"/>
      <point x="963" y="576"/>
      <point x="960" y="514"/>
      <point x="953" y="459" type="curve" smooth="yes"/>
      <point x="939" y="348"/>
      <point x="904" y="244"/>
      <point x="848" y="178" type="curve" smooth="yes"/>
      <point x="792" y="112"/>
      <point x="702" y="70"/>
      <point x="586" y="70" type="curve" smooth="yes"/>
      <point x="480" y="70"/>
      <point x="372" y="76"/>
      <point x="262" y="89" type="curve"/>
      <point x="262" y="0" type="line"/>
      <point x="300" y="-5" type="line" smooth="yes"/>
      <point x="376" y="-15"/>
      <point x="472" y="-20"/>
    </contour>
  </outline>
</glyph>
<glyph name="finaltsadi-hb" format="2">
  <advance width="898"/>
  <unicode hex="05E5"/>
  <note>
afii57685
</note>
  <anchor x="449" y="0" name="bottom"/>
  <anchor x="20" y="0" name="bottomleft"/>
  <anchor x="449" y="544" name="center"/>
  <anchor x="449" y="1087" name="top"/>
  <anchor x="20" y="1087" name="topleft"/>
  <outline>
    <contour>
      <point x="269" y="-492" type="line"/>
      <point x="371" y="-492" type="line"/>
      <point x="371" y="448" type="line"/>
      <point x="522" y="489" type="line" smooth="yes"/>
      <point x="614" y="513"/>
      <point x="684" y="563"/>
      <point x="724" y="616" type="curve" smooth="yes"/>
      <point x="775" y="685"/>
      <point x="800" y="780"/>
      <point x="800" y="901" type="curve" smooth="yes"/>
      <point x="800" y="1290" type="line"/>
      <point x="699" y="1290" type="line"/>
      <point x="699" y="901" type="line" smooth="yes"/>
      <point x="699" y="734"/>
      <point x="629" y="617"/>
      <point x="521" y="586" type="curve" smooth="yes"/>
      <point x="471" y="572"/>
      <point x="421" y="558"/>
      <point x="371" y="544" type="curve"/>
      <point x="102" y="1290" type="line"/>
      <point x="0" y="1290" type="line"/>
      <point x="269" y="550" type="line"/>
    </contour>
  </outline>
</glyph>
<glyph name="tsadi-hb" format="2">
  <advance width="1074"/>
  <unicode hex="05E6"/>
  <note>
afii57686
</note>
  <anchor x="537" y="0" name="bottom"/>
  <anchor x="20" y="0" name="bottomleft"/>
  <anchor x="261" y="495" name="center"/>
  <anchor x="537" y="1087" name="top"/>
  <anchor x="20" y="1087" name="topleft"/>
  <outline>
    <contour>
      <point x="82" y="0" type="line"/>
      <point x="970" y="0" type="line"/>
      <point x="970" y="63" type="line"/>
      <point x="685" y="492" type="line"/>
      <point x="746" y="547"/>
      <point x="797" y="611"/>
      <point x="838" y="681" type="curve" smooth="yes"/>
      <point x="866" y="729"/>
      <point x="890" y="779"/>
      <point x="908" y="832" type="curve" smooth="yes"/>
      <point x="931" y="897"/>
      <point x="946" y="966"/>
      <point x="953" y="1036" type="curve" smooth="yes"/>
      <point x="977" y="1290" type="line"/>
      <point x="887" y="1290" type="line"/>
      <point x="862" y="1036" type="line" smooth="yes"/>
      <point x="843" y="847"/>
      <point x="767" y="691"/>
      <point x="634" y="568" type="curve"/>
      <point x="579" y="650" type="line"/>
      <point x="194" y="1290" type="line"/>
      <point x="86" y="1290" type="line"/>
      <point x="520" y="580" type="line"/>
      <point x="849" y="88" type="line"/>
      <point x="726" y="88" type="line"/>
      <point x="82" y="88" type="line"/>
    </contour>
  </outline>
</glyph>
<glyph name="qof-hb" format="2">
  <advance width="1174"/>
  <unicode hex="05E7"/>
  <note>
afii57687
</note>
  <anchor x="587" y="0" name="bottom"/>
  <anchor x="20" y="0" name="bottomleft"/>
  <anchor x="567" y="664" name="center"/>
  <anchor x="587" y="1087" name="top"/>
  <anchor x="20" y="1087" name="topleft"/>
  <outline>
    <contour>
      <point x="683" y="0" type="curve"/>
      <point x="783" y="0" type="line"/>
      <point x="783" y="17" type="line" smooth="yes"/>
      <point x="783" y="81"/>
      <point x="840" y="319"/>
      <point x="862" y="386" type="curve" smooth="yes"/>
      <point x="874" y="430"/>
      <point x="916" y="577"/>
      <point x="920" y="593" type="curve" smooth="yes"/>
      <point x="1092" y="1202" type="line"/>
      <point x="1092" y="1290" type="line"/>
      <point x="182" y="1290" type="line"/>
      <point x="182" y="1202" type="line"/>
      <point x="990" y="1202" type="line"/>
      <point x="818" y="593" type="line" smooth="yes"/>
      <point x="790" y="494"/>
      <point x="755" y="368"/>
      <point x="746" y="333" type="curve" smooth="yes"/>
      <point x="715" y="214"/>
      <point x="683" y="87"/>
      <point x="683" y="17" type="curve" smooth="yes"/>
      <point x="683" y="11"/>
      <point x="683" y="6"/>
    </contour>
    <contour>
      <point x="183" y="-492" type="line"/>
      <point x="285" y="-492" type="line"/>
      <point x="285" y="759" type="line"/>
      <point x="183" y="759" type="line"/>
    </contour>
  </outline>
</glyph>
<glyph name="brevecomb-cy" format="2">
  <note>
g566
</note>
  <anchor x="480" y="1133" name="_top"/>
  <outline>
    <contour>
      <point x="480" y="1210" type="curve" smooth="yes"/>
      <point x="679" y="1210"/>
      <point x="785" y="1304"/>
      <point x="799" y="1491" type="curve"/>
      <point x="711" y="1491" type="line"/>
      <point x="695" y="1348"/>
      <point x="629" y="1290"/>
      <point x="482" y="1290" type="curve" smooth="yes"/>
      <point x="334" y="1290"/>
      <point x="270" y="1344"/>
      <point x="250" y="1491" type="curve"/>
      <point x="162" y="1491" type="line"/>
      <point x="179" y="1294"/>
      <point x="281" y="1210"/>
    </contour>
  </outline>
</glyph>
<glyph name="g570" format="2">
  <advance width="924"/>
  <note>
g570
</note>
  <outline>
    <contour>
      <point x="360" y="1210" type="line"/>
      <point x="472" y="1210" type="line"/>
      <point x="480" y="1278"/>
      <point x="522" y="1444"/>
      <point x="558" y="1521" type="curve"/>
      <point x="558" y="1538" type="line"/>
      <point x="505" y="1538" type="line"/>
      <point x="449" y="1457"/>
      <point x="387" y="1327"/>
      <point x="360" y="1224" type="curve"/>
    </contour>
  </outline>
</glyph>
<glyph name="g887" format="2">
  <note>
g887
</note>
  <anchor x="-660" y="1141" name="_top"/>
  <outline>
    <contour>
      <point x="-956" y="1211" type="line"/>
      <point x="-888" y="1211" type="line"/>
      <point x="-803" y="1273"/>
      <point x="-730" y="1332"/>
      <point x="-671" y="1387" type="curve"/>
      <point x="-612" y="1332"/>
      <point x="-539" y="1273"/>
      <point x="-454" y="1211" type="curve"/>
      <point x="-387" y="1211" type="line"/>
      <point x="-387" y="1227" type="line"/>
      <point x="-472" y="1311"/>
      <point x="-549" y="1398"/>
      <point x="-616" y="1488" type="curve"/>
      <point x="-722" y="1488" type="line"/>
      <point x="-784" y="1405"/>
      <point x="-862" y="1318"/>
      <point x="-956" y="1227" type="curve"/>
    </contour>
    <contour>
      <point x="-466" y="1406" type="line"/>
      <point x="-399" y="1406" type="line"/>
      <point x="-330" y="1466"/>
      <point x="-266" y="1536"/>
      <point x="-206" y="1617" type="curve"/>
      <point x="-206" y="1633" type="line"/>
      <point x="-331" y="1633" type="line"/>
      <point x="-392" y="1520"/>
      <point x="-410" y="1494"/>
      <point x="-466" y="1422" type="curve"/>
    </contour>
  </outline>
</glyph>
<glyph name="g890" format="2">
  <note>
g890
</note>
  <anchor x="-640" y="1141" name="_top"/>
  <outline>
    <contour>
      <point x="-924" y="1212" type="line"/>
      <point x="-856" y="1212" type="line"/>
      <point x="-771" y="1274"/>
      <point x="-698" y="1333"/>
      <point x="-639" y="1388" type="curve"/>
      <point x="-580" y="1333"/>
      <point x="-507" y="1274"/>
      <point x="-422" y="1212" type="curve"/>
      <point x="-355" y="1212" type="line"/>
      <point x="-355" y="1228" type="line"/>
      <point x="-440" y="1312"/>
      <point x="-517" y="1399"/>
      <point x="-584" y="1489" type="curve"/>
      <point x="-690" y="1489" type="line"/>
      <point x="-752" y="1406"/>
      <point x="-830" y="1319"/>
      <point x="-924" y="1228" type="curve"/>
    </contour>
    <contour>
      <point x="-940" y="1566" type="curve"/>
      <point x="-867" y="1566" type="line"/>
      <point x="-850" y="1652"/>
      <point x="-815" y="1695"/>
      <point x="-762" y="1695" type="curve" smooth="yes"/>
      <point x="-727" y="1695"/>
      <point x="-689" y="1663"/>
      <point x="-646" y="1632" type="curve" smooth="yes"/>
      <point x="-603" y="1600"/>
      <point x="-556" y="1568"/>
      <point x="-504" y="1568" type="curve" smooth="yes"/>
      <point x="-405" y="1568"/>
      <point x="-339" y="1644"/>
      <point x="-324" y="1779" type="curve"/>
      <point x="-400" y="1779" type="line"/>
      <point x="-415" y="1694"/>
      <point x="-448" y="1652"/>
      <point x="-498" y="1652" type="curve" smooth="yes"/>
      <point x="-537" y="1652"/>
      <point x="-574" y="1683"/>
      <point x="-616" y="1715" type="curve" smooth="yes"/>
      <point x="-658" y="1746"/>
      <point x="-704" y="1777"/>
      <point x="-756" y="1777" type="curve" smooth="yes"/>
      <point x="-860" y="1777"/>
      <point x="-921" y="1695"/>
    </contour>
  </outline>
</glyph>
<glyph name="g891" format="2">
  <note>
g891
</note>
  <anchor x="-663" y="1131" name="_top"/>
  <outline>
    <contour>
      <point x="-665" y="1211" type="curve" smooth="yes"/>
      <point x="-500" y="1211"/>
      <point x="-407" y="1293"/>
      <point x="-387" y="1457" type="curve"/>
      <point x="-467" y="1457" type="line"/>
      <point x="-487" y="1341"/>
      <point x="-546" y="1295"/>
      <point x="-663" y="1295" type="curve" smooth="yes"/>
      <point x="-780" y="1295"/>
      <point x="-839" y="1341"/>
      <point x="-858" y="1457" type="curve"/>
      <point x="-940" y="1457" type="line"/>
      <point x="-925" y="1293"/>
      <point x="-834" y="1211"/>
    </contour>
    <contour>
      <point x="-727" y="1471" type="line"/>
      <point x="-659" y="1471" type="line"/>
      <point x="-602" y="1520"/>
      <point x="-516" y="1611"/>
      <point x="-467" y="1682" type="curve"/>
      <point x="-467" y="1699" type="line"/>
      <point x="-592" y="1699" type="line"/>
      <point x="-659" y="1575"/>
      <point x="-682" y="1544"/>
      <point x="-727" y="1488" type="curve"/>
    </contour>
  </outline>
</glyph>
<glyph name="g894" format="2">
  <note>
g894
</note>
  <anchor x="-643" y="1131" name="_top"/>
  <outline>
    <contour>
      <point x="-655" y="1212" type="curve" smooth="yes"/>
      <point x="-490" y="1212"/>
      <point x="-397" y="1294"/>
      <point x="-377" y="1458" type="curve"/>
      <point x="-457" y="1458" type="line"/>
      <point x="-477" y="1342"/>
      <point x="-536" y="1296"/>
      <point x="-653" y="1296" type="curve" smooth="yes"/>
      <point x="-770" y="1296"/>
      <point x="-829" y="1342"/>
      <point x="-848" y="1458" type="curve"/>
      <point x="-930" y="1458" type="line"/>
      <point x="-915" y="1294"/>
      <point x="-824" y="1212"/>
    </contour>
    <contour>
      <point x="-950" y="1556" type="curve"/>
      <point x="-877" y="1556" type="line"/>
      <point x="-860" y="1642"/>
      <point x="-825" y="1685"/>
      <point x="-772" y="1685" type="curve" smooth="yes"/>
      <point x="-737" y="1685"/>
      <point x="-699" y="1653"/>
      <point x="-656" y="1622" type="curve" smooth="yes"/>
      <point x="-613" y="1590"/>
      <point x="-566" y="1558"/>
      <point x="-514" y="1558" type="curve" smooth="yes"/>
      <point x="-415" y="1558"/>
      <point x="-349" y="1634"/>
      <point x="-334" y="1769" type="curve"/>
      <point x="-410" y="1769" type="line"/>
      <point x="-425" y="1693"/>
      <point x="-448" y="1642"/>
      <point x="-508" y="1642" type="curve" smooth="yes"/>
      <point x="-547" y="1642"/>
      <point x="-584" y="1673"/>
      <point x="-626" y="1705" type="curve" smooth="yes"/>
      <point x="-668" y="1736"/>
      <point x="-714" y="1767"/>
      <point x="-766" y="1767" type="curve" smooth="yes"/>
      <point x="-870" y="1767"/>
      <point x="-931" y="1685"/>
    </contour>
  </outline>
</glyph>
